<svg width="30" height="31" viewBox="0 0 30 31" fill="none" xmlns="http://www.w3.org/2000/svg">
    <path d="M14.9292 29.1998C12.1689 29.1928 9.47252 28.36 7.18074 26.8064C4.88895 25.2529 3.10456 23.0484 2.05298 20.4713C1.00141 17.8943 0.729847 15.0604 1.27259 12.3276C1.81531 9.59483 3.14799 7.08577 5.10228 5.11738C7.05657 3.14898 9.54479 1.80957 12.2526 1.26837C14.9603 0.727166 17.7664 1.00844 20.316 2.07666C22.8653 3.14487 25.0444 4.9521 26.5771 7.27004C28.1101 9.58798 28.9282 12.3127 28.9282 15.0999C28.919 18.8426 27.4399 22.4289 24.8156 25.0721C22.1913 27.7154 18.636 29.1998 14.9292 29.1998ZM14.9292 2.07826C12.3799 2.08444 9.88966 2.85338 7.77299 4.28797C5.65629 5.72254 4.0082 7.75841 3.03684 10.1383C2.06552 12.5183 1.81453 15.1355 2.31564 17.6594C2.81672 20.1832 4.04739 22.5005 5.85218 24.3185C7.65695 26.1365 9.95489 27.3736 12.4556 27.8735C14.9565 28.3734 17.5477 28.1137 19.9025 27.1272C22.257 26.1407 24.2695 24.4717 25.685 22.331C27.1007 20.1903 27.8562 17.6739 27.8562 15.0999C27.8482 11.6434 26.4826 8.33142 24.0592 5.8903C21.6358 3.44916 18.3525 2.07825 14.9292 2.07826Z" fill="white"/>
    <path d="M14.9292 1.93262H14.9289C12.3512 1.93887 9.83313 2.71639 7.69278 4.167C5.55246 5.6176 3.88592 7.67622 2.90371 10.0828C1.92149 12.4894 1.66771 15.1359 2.17441 17.688C2.68114 20.2402 3.92558 22.5834 5.75054 24.4217C7.5755 26.26 9.89909 27.5109 12.4277 28.0164C14.9563 28.5219 17.5768 28.2593 19.9576 27.2618C22.3386 26.2643 24.3733 24.5767 25.8049 22.412C27.2365 20.2474 28.0004 17.7028 28.0004 15.0999V15.0995C27.9923 11.6045 26.6114 8.25549 24.1609 5.78713C21.7104 3.31877 18.3906 1.93261 14.9292 1.93262ZM14.9298 29.0541C12.1978 29.0472 9.52916 28.223 7.26101 26.6855C4.99288 25.148 3.22694 22.9662 2.18622 20.4158C1.14554 17.8654 0.876774 15.0608 1.4139 12.3563C1.95103 9.65178 3.26993 7.16865 5.20402 5.22059C7.13814 3.27252 9.60068 1.94692 12.2806 1.4113C14.9606 0.875668 17.7376 1.15405 20.2607 2.21125C22.7841 3.26845 24.9404 5.05703 26.4573 7.35103C27.9744 9.64493 28.7839 12.3413 28.7841 15.0995C28.7749 18.8036 27.3114 22.3529 24.7139 24.969C22.1167 27.5849 18.598 29.054 14.9298 29.0541Z" fill="white" stroke="white" stroke-opacity="0.2"/>
    <path fill-rule="evenodd" clip-rule="evenodd" d="M7.58312 5.70861C7.58312 6.17222 7.4482 6.62542 7.1954 7.01089C6.94263 7.39639 6.58332 7.69682 6.16295 7.87424C5.74259 8.05167 5.28001 8.09808 4.83376 8.00762C4.38749 7.91718 3.97755 7.69393 3.65582 7.36609C3.33409 7.03828 3.11498 6.62061 3.02623 6.16592C2.93744 5.7112 2.983 5.2399 3.15714 4.81158C3.33124 4.38326 3.62612 4.01716 4.00444 3.7596C4.38276 3.50203 4.82757 3.36456 5.28257 3.36456C5.89272 3.36456 6.47786 3.61152 6.90932 4.05113C7.34075 4.4907 7.58312 5.08692 7.58312 5.70861Z" fill="white"/>
    <path fill-rule="evenodd" clip-rule="evenodd" d="M15.3249 28.6559C15.3249 29.1195 15.1901 29.5727 14.9371 29.9581C14.6843 30.3438 14.325 30.6441 13.9046 30.8216C13.4844 30.999 13.0217 31.0453 12.5755 30.955C12.1292 30.8644 11.7193 30.6412 11.3976 30.3135C11.0758 29.9855 10.8567 29.5679 10.768 29.1132C10.6792 28.6585 10.7247 28.1872 10.8989 27.7588C11.073 27.3305 11.3679 26.9644 11.7462 26.7069C12.1245 26.4493 12.5693 26.3118 13.0243 26.3118C13.6346 26.3118 14.2195 26.5588 14.6509 26.9984C15.0826 27.438 15.3249 28.0342 15.3249 28.6559Z" fill="white"/>
    <path fill-rule="evenodd" clip-rule="evenodd" d="M29.4617 10.3175C29.4617 10.7811 29.3268 11.2343 29.0741 11.6198C28.8214 12.0052 28.4621 12.3057 28.0416 12.4831C27.6212 12.6605 27.1587 12.707 26.7124 12.6165C26.2663 12.5261 25.8562 12.3028 25.5344 11.975C25.2128 11.6472 24.9938 11.2295 24.905 10.7748C24.816 10.3201 24.8618 9.84879 25.0358 9.42046C25.2099 8.99214 25.5047 8.62605 25.883 8.36847C26.2614 8.1109 26.7063 7.97345 27.1613 7.97345C27.7713 7.97345 28.3566 8.22042 28.788 8.65999C29.2193 9.09959 29.4617 9.69581 29.4617 10.3175Z" fill="white"/>
    <path d="M18.5919 22.9129C19.5446 22.4283 20.399 21.7657 21.111 20.9595V9.41112C20.3998 8.60386 19.5451 7.94106 18.5919 7.45776V14.611H10.9504V7.51635C10.0027 8.01471 9.15487 8.68913 8.45044 9.50487V15.9042C8.45073 16.0743 8.48329 16.2427 8.54631 16.4003C8.60887 16.5525 8.69857 16.6916 8.81087 16.8105C8.92158 16.9233 9.05151 17.0146 9.19429 17.0801C9.35246 17.1512 9.52369 17.1872 9.69658 17.1855H18.5766L18.5919 22.9129Z" fill="white"/>
    <path d="M14.9292 1.93262H14.9289C12.3512 1.93887 9.83313 2.71639 7.69278 4.167C5.55246 5.6176 3.88592 7.67622 2.90371 10.0828C1.92149 12.4894 1.66771 15.1359 2.17441 17.688C2.68114 20.2402 3.92558 22.5834 5.75054 24.4217C7.5755 26.26 9.89909 27.5109 12.4277 28.0164C14.9563 28.5219 17.5768 28.2593 19.9576 27.2618C22.3386 26.2643 24.3733 24.5767 25.8049 22.412C27.2365 20.2474 28.0004 17.7028 28.0004 15.0999V15.0995C27.9923 11.6045 26.6114 8.25549 24.1609 5.78713C21.7104 3.31877 18.3906 1.93261 14.9292 1.93262ZM14.9298 29.0541C12.1978 29.0472 9.52916 28.223 7.26101 26.6855C4.99288 25.148 3.22694 22.9662 2.18622 20.4158C1.14554 17.8654 0.876774 15.0608 1.4139 12.3563C1.95103 9.65178 3.26993 7.16865 5.20402 5.22059C7.13814 3.27252 9.60068 1.94692 12.2806 1.4113C14.9606 0.875668 17.7376 1.15405 20.2607 2.21125C22.7841 3.26845 24.9404 5.05703 26.4573 7.35103C27.9744 9.64493 28.7839 12.3413 28.7841 15.0995C28.7749 18.8036 27.3114 22.3529 24.7139 24.969C22.1167 27.5849 18.598 29.054 14.9298 29.0541Z" fill="white" stroke="white" stroke-opacity="0.2"/>
    <path fill-rule="evenodd" clip-rule="evenodd" d="M7.58312 5.70861C7.58312 6.17222 7.4482 6.62542 7.1954 7.01089C6.94263 7.39639 6.58332 7.69682 6.16295 7.87424C5.74259 8.05167 5.28001 8.09808 4.83376 8.00762C4.38749 7.91718 3.97755 7.69393 3.65582 7.36609C3.33409 7.03828 3.11498 6.62061 3.02623 6.16592C2.93744 5.7112 2.983 5.2399 3.15714 4.81158C3.33124 4.38326 3.62612 4.01716 4.00444 3.7596C4.38276 3.50203 4.82757 3.36456 5.28257 3.36456C5.89272 3.36456 6.47786 3.61152 6.90932 4.05113C7.34075 4.4907 7.58312 5.08692 7.58312 5.70861Z" fill="white"/>
    <path fill-rule="evenodd" clip-rule="evenodd" d="M15.3249 28.6559C15.3249 29.1195 15.1901 29.5727 14.9371 29.9581C14.6843 30.3438 14.325 30.6441 13.9046 30.8216C13.4844 30.999 13.0217 31.0453 12.5755 30.955C12.1292 30.8644 11.7193 30.6412 11.3976 30.3135C11.0758 29.9855 10.8567 29.5679 10.768 29.1132C10.6792 28.6585 10.7247 28.1872 10.8989 27.7588C11.073 27.3305 11.3679 26.9644 11.7462 26.7069C12.1245 26.4493 12.5693 26.3118 13.0243 26.3118C13.6346 26.3118 14.2195 26.5588 14.6509 26.9984C15.0826 27.438 15.3249 28.0342 15.3249 28.6559Z" fill="white"/>
    <path fill-rule="evenodd" clip-rule="evenodd" d="M29.4617 10.3175C29.4617 10.7811 29.3268 11.2343 29.0741 11.6198C28.8214 12.0052 28.4621 12.3057 28.0416 12.4831C27.6212 12.6605 27.1587 12.707 26.7124 12.6165C26.2663 12.5261 25.8562 12.3028 25.5344 11.975C25.2128 11.6472 24.9938 11.2295 24.905 10.7748C24.816 10.3201 24.8618 9.84879 25.0358 9.42046C25.2099 8.99214 25.5047 8.62605 25.883 8.36847C26.2614 8.1109 26.7063 7.97345 27.1613 7.97345C27.7713 7.97345 28.3566 8.22042 28.788 8.65999C29.2193 9.09959 29.4617 9.69581 29.4617 10.3175Z" fill="white"/>
    <path d="M18.5919 22.9129C19.5446 22.4283 20.399 21.7657 21.111 20.9595V9.41112C20.3998 8.60386 19.5451 7.94106 18.5919 7.45776V14.611H10.9504V7.51635C10.0027 8.01471 9.15487 8.68913 8.45044 9.50487V15.9042C8.45073 16.0743 8.48329 16.2427 8.54631 16.4003C8.60887 16.5525 8.69857 16.6916 8.81087 16.8105C8.92158 16.9233 9.05151 17.0146 9.19429 17.0801C9.35246 17.1512 9.52369 17.1872 9.69658 17.1855H18.5766L18.5919 22.9129Z" fill="white"/>
    <path d="M14.9292 1.93262C12.3515 1.93887 9.83313 2.71639 7.69278 4.167C5.55246 5.6176 3.88592 7.67622 2.90371 10.0828C1.92149 12.4894 1.66771 15.1359 2.17441 17.688C2.68114 20.2402 3.92558 22.5834 5.75054 24.4217C7.5755 26.2601 9.89909 27.5109 12.4277 28.0164C14.9563 28.5219 17.5768 28.2593 19.9576 27.2618C22.3386 26.2643 24.3733 24.5767 25.8049 22.412C27.2364 20.2474 28.0004 17.7028 28.0004 15.0999C27.9923 11.6048 26.6114 8.25549 24.1609 5.78713C21.7104 3.31877 18.3906 1.93261 14.9292 1.93262ZM14.9298 29.0541C12.1978 29.0473 9.52916 28.223 7.26101 26.6855C4.99288 25.148 3.22694 22.9662 2.18622 20.4158C1.14554 17.8654 0.876774 15.0608 1.4139 12.3563C1.95103 9.65178 3.26993 7.16865 5.20402 5.22059C7.13814 3.27252 9.60068 1.94692 12.2806 1.4113C14.9606 0.875668 17.7376 1.15405 20.2607 2.21125C22.7841 3.26845 24.9404 5.05703 26.4573 7.35103C27.9744 9.64494 28.7839 12.3413 28.7841 15.0995C28.7749 18.8036 27.3114 22.3529 24.7139 24.969C22.1167 27.5849 18.598 29.054 14.9298 29.0541Z" fill="white" stroke="white" stroke-opacity="0.2"/>
    <path d="M14.9292 1.93262C12.3515 1.93887 9.83313 2.71639 7.69278 4.167C5.55246 5.6176 3.88592 7.67622 2.90371 10.0828C1.92149 12.4894 1.66771 15.1359 2.17441 17.688C2.68114 20.2402 3.92558 22.5834 5.75054 24.4217C7.5755 26.2601 9.89909 27.5109 12.4277 28.0164C14.9563 28.5219 17.5768 28.2593 19.9576 27.2618C22.3386 26.2643 24.3733 24.5767 25.8049 22.412C27.2364 20.2474 28.0004 17.7028 28.0004 15.0999C27.9923 11.6048 26.6114 8.25549 24.1609 5.78713C21.7104 3.31877 18.3906 1.93261 14.9292 1.93262ZM14.9298 29.0541C12.1978 29.0473 9.52916 28.223 7.26101 26.6855C4.99288 25.148 3.22694 22.9662 2.18622 20.4158C1.14554 17.8654 0.876774 15.0608 1.4139 12.3563C1.95103 9.65178 3.26993 7.16865 5.20402 5.22059C7.13814 3.27252 9.60068 1.94692 12.2806 1.4113C14.9606 0.875668 17.7376 1.15405 20.2607 2.21125C22.7841 3.26845 24.9404 5.05703 26.4573 7.35103C27.9744 9.64494 28.7839 12.3413 28.7841 15.0995C28.7749 18.8036 27.3114 22.3529 24.7139 24.969C22.1167 27.5849 18.598 29.054 14.9298 29.0541Z" fill="white" stroke="white" stroke-opacity="0.2"/>
    <path fill-rule="evenodd" clip-rule="evenodd" d="M7.58312 5.70861C7.58312 6.17222 7.4482 6.62542 7.1954 7.01089C6.94263 7.39639 6.58332 7.69682 6.16295 7.87424C5.74259 8.05167 5.28001 8.09808 4.83376 8.00762C4.38749 7.91718 3.97755 7.69393 3.65582 7.36609C3.33409 7.03828 3.11498 6.62061 3.02623 6.16592C2.93744 5.7112 2.983 5.2399 3.15714 4.81158C3.33124 4.38326 3.62612 4.01716 4.00444 3.7596C4.38276 3.50203 4.82757 3.36456 5.28257 3.36456C5.89272 3.36456 6.47786 3.61152 6.90932 4.05113C7.34075 4.4907 7.58312 5.08692 7.58312 5.70861Z" fill="white"/>
    <path fill-rule="evenodd" clip-rule="evenodd" d="M15.3249 28.6559C15.3249 29.1195 15.1901 29.5727 14.9371 29.9581C14.6843 30.3438 14.325 30.6441 13.9046 30.8216C13.4844 30.999 13.0217 31.0453 12.5755 30.955C12.1292 30.8644 11.7193 30.6412 11.3976 30.3135C11.0758 29.9855 10.8567 29.5679 10.768 29.1132C10.6792 28.6585 10.7247 28.1872 10.8989 27.7588C11.073 27.3305 11.3679 26.9644 11.7462 26.7069C12.1245 26.4493 12.5693 26.3118 13.0243 26.3118C13.6346 26.3118 14.2195 26.5588 14.6509 26.9984C15.0826 27.438 15.3249 28.0342 15.3249 28.6559Z" fill="white"/>
    <path fill-rule="evenodd" clip-rule="evenodd" d="M29.4617 10.3175C29.4617 10.7811 29.3268 11.2343 29.0741 11.6198C28.8214 12.0052 28.4621 12.3057 28.0416 12.4831C27.6212 12.6605 27.1587 12.707 26.7124 12.6165C26.2663 12.5261 25.8562 12.3028 25.5344 11.975C25.2128 11.6472 24.9938 11.2295 24.905 10.7748C24.816 10.3201 24.8618 9.84879 25.0358 9.42046C25.2099 8.99214 25.5047 8.62605 25.883 8.36847C26.2614 8.1109 26.7063 7.97345 27.1613 7.97345C27.7713 7.97345 28.3566 8.22042 28.788 8.65999C29.2193 9.09959 29.4617 9.69581 29.4617 10.3175Z" fill="white"/>
    <path d="M18.5919 22.9129C19.5446 22.4283 20.399 21.7657 21.111 20.9595V9.41112C20.3998 8.60386 19.5451 7.94106 18.5919 7.45776V14.611H10.9504V7.51635C10.0027 8.01471 9.15487 8.68913 8.45044 9.50487V15.9042C8.45073 16.0743 8.48329 16.2427 8.54631 16.4003C8.60887 16.5525 8.69857 16.6916 8.81087 16.8105C8.92158 16.9233 9.05151 17.0146 9.19429 17.0801C9.35246 17.1512 9.52369 17.1872 9.69658 17.1855H18.5766L18.5919 22.9129Z" fill="white"/>
</svg>
