<svg width="142" height="38" viewBox="0 0 142 38" fill="none" xmlns="http://www.w3.org/2000/svg">
<g clip-path="url(#clip0_4902_38480)" filter="url(#filter0_d_4902_38480)">
<mask id="mask0_4902_38480" style="mask-type:luminance" maskUnits="userSpaceOnUse" x="4" y="0" width="169" height="119">
<path d="M4 0H172.044V118.822H4V0Z" fill="white"/>
</mask>
<g mask="url(#mask0_4902_38480)">
<path d="M67.892 28.6028V0.878244C67.892 0.379242 68.2912 0 68.7702 0H71.5646C72.0636 0 72.4429 0.399202 72.4429 0.878244V28.5828C72.4429 29.0818 72.0437 29.4611 71.5646 29.4611H68.7702C68.2912 29.481 67.892 29.0818 67.892 28.6028ZM20.9259 0H18.2313C17.5726 0 16.9938 0.379242 16.7143 0.978044L4.05963 28.5629C3.86003 28.982 4.17939 29.481 4.63847 29.481H7.59256C8.29117 29.481 8.90993 29.0818 9.18937 28.4431L19.2892 5.88822C19.4089 5.62874 19.7682 5.62874 19.888 5.88822L29.9878 28.4431C30.2672 29.0818 30.9059 29.481 31.5846 29.481H34.4988C34.9778 29.481 35.2772 29.002 35.0776 28.5629L22.4429 0.978044C22.1634 0.379242 21.5846 0 20.9259 0ZM54.5387 16.6267C54.3989 16.4471 54.5187 16.1677 54.7383 16.1677C60.3071 15.8084 63.6804 12.4551 63.6804 8.08383C63.6804 3.33333 59.9079 0.0598802 53.7003 0.0598802H40.1475C39.6285 0.0598802 39.2093 0.479042 39.2093 0.998004V28.5828C39.2093 29.1018 39.6285 29.521 40.1475 29.521H42.9019C43.361 29.521 43.7203 29.1617 43.7203 28.7026L43.7602 4.47106C43.7602 4.21158 43.9598 4.01198 44.2193 4.01198L53.6804 4.03194C57.0936 4.03194 58.9498 5.48902 58.9498 8.02395C58.9498 10.499 57.0936 12.1557 53.6804 12.1557H49.7882C49.2692 12.1557 48.85 12.5748 48.85 13.0938V15.2695C48.85 15.8882 49.0496 16.507 49.4089 17.006L57.9319 28.5828C58.351 29.1417 59.0097 29.481 59.7083 29.481H63.3011C63.7602 29.481 64.0197 28.9421 63.7403 28.5828L54.5387 16.6267Z" fill="white"/>
</g>
<mask id="mask1_4902_38480" style="mask-type:luminance" maskUnits="userSpaceOnUse" x="4" y="0" width="169" height="119">
<path d="M4 0H172.044V118.822H4V0Z" fill="white"/>
</mask>
<g mask="url(#mask1_4902_38480)">
<path d="M94.0599 29.6605H91.2455C90.7465 29.6605 90.3273 29.2413 90.3273 28.7423V5.88804C90.3273 5.6086 90.0479 5.409 89.7684 5.5088L85.3173 7.22536C84.8383 7.405 84.3193 7.04572 84.3193 6.54672V4.41099C84.3193 3.83215 84.6786 3.33315 85.2175 3.15351L93.8802 0.0996143C94.4191 -0.0800264 94.978 0.299215 94.978 0.878057V28.7423C94.978 29.2613 94.5589 29.6605 94.0599 29.6605ZM112.703 0.0596942C104.479 0.0596942 97.8124 6.72636 97.8124 14.9499C97.8124 23.1735 104.479 29.8202 112.703 29.8202C120.926 29.8202 127.573 23.1535 127.573 14.9499C127.573 6.74632 120.926 0.0596942 112.703 0.0596942ZM112.703 25.3691C106.954 25.3691 102.283 20.6984 102.283 14.9499C102.283 9.20141 106.954 4.53075 112.703 4.53075C118.451 4.53075 123.122 9.20141 123.122 14.9499C123.122 20.6984 118.451 25.3691 112.703 25.3691ZM137.952 4.77027C137.952 2.11558 135.756 -0.0201461 133.082 0.0796542C130.667 0.179455 128.671 2.17546 128.571 4.59063C128.471 7.26528 130.607 9.46089 133.261 9.46089C133.481 9.46089 133.681 9.44093 133.88 9.42097C134 9.40101 134.08 9.54073 134.02 9.64053L131.705 13.5327C131.585 13.7124 131.725 13.9519 131.944 13.9519L132.942 13.9719C133.202 13.9719 133.461 13.8321 133.581 13.6126L137.333 7.08564C137.733 6.38704 137.952 5.6086 137.952 4.77027ZM130.327 4.77027C130.327 3.15351 131.645 1.8561 133.241 1.8561C134.858 1.8561 136.176 3.17347 136.176 4.77027C136.176 6.38704 134.858 7.7044 133.241 7.7044C131.645 7.68444 130.327 6.38704 130.327 4.77027Z" fill="#FBBB21"/>
</g>
</g>
<defs>
<filter id="filter0_d_4902_38480" x="0" y="0" width="141.992" height="38" filterUnits="userSpaceOnUse" color-interpolation-filters="sRGB">
<feFlood flood-opacity="0" result="BackgroundImageFix"/>
<feColorMatrix in="SourceAlpha" type="matrix" values="0 0 0 0 0 0 0 0 0 0 0 0 0 0 0 0 0 0 127 0" result="hardAlpha"/>
<feOffset dy="4"/>
<feGaussianBlur stdDeviation="2"/>
<feComposite in2="hardAlpha" operator="out"/>
<feColorMatrix type="matrix" values="0 0 0 0 0 0 0 0 0 0 0 0 0 0 0 0 0 0 0.25 0"/>
<feBlend mode="normal" in2="BackgroundImageFix" result="effect1_dropShadow_4902_38480"/>
<feBlend mode="normal" in="SourceGraphic" in2="effect1_dropShadow_4902_38480" result="shape"/>
</filter>
<clipPath id="clip0_4902_38480">
<rect width="133.992" height="30" fill="white" transform="translate(4)"/>
</clipPath>
</defs>
</svg>
