<svg width="221" height="103" viewBox="0 0 221 103" fill="none" xmlns="http://www.w3.org/2000/svg">
<g clip-path="url(#clip0_826_14576)">
<path d="M108.029 96.7943C98.45 96.7704 89.0927 93.9117 81.1395 88.5793C73.1863 83.2469 66.9939 75.68 63.3446 66.8345C59.6953 57.989 58.7529 48.2618 60.6364 38.8816C62.5198 29.5015 67.1446 20.8893 73.9266 14.1329C80.7086 7.37649 89.3435 2.77906 98.7404 0.921408C108.137 -0.936242 117.875 0.0292159 126.723 3.6958C135.57 7.36238 143.132 13.5656 148.451 21.5218C153.771 29.478 156.61 38.8303 156.61 48.3972C156.578 61.244 151.445 73.5537 142.338 82.6264C133.231 91.6992 120.893 96.7943 108.029 96.7943ZM108.029 3.70132C99.1824 3.72253 90.5403 6.36188 83.1948 11.286C75.8492 16.2101 70.1298 23.1981 66.7589 31.367C63.3881 39.536 62.5171 48.5194 64.2561 57.1825C65.995 65.8456 70.2658 73.7996 76.529 80.0397C82.7921 86.2798 90.7667 90.526 99.4451 92.242C108.124 93.9579 117.116 93.0665 125.288 89.6805C133.459 86.2944 140.443 80.5656 145.355 73.2177C150.268 65.8699 152.89 57.2326 152.89 48.3972C152.862 36.5332 148.123 25.1649 139.713 16.7859C131.303 8.40684 119.909 3.70129 108.029 3.70132Z" fill="#2AFD88"/>
<path d="M108.029 3.20132L108.028 3.20132C99.0825 3.22277 90.344 5.89156 82.9163 10.8707C75.4887 15.8498 69.7053 22.9159 66.2967 31.1763C62.8881 39.4367 62.0074 48.5208 63.7658 57.2809C65.5243 66.041 69.8429 74.084 76.1761 80.3939C82.5093 86.7038 90.5729 90.9974 99.3481 92.7325C108.123 94.4675 117.217 93.5662 125.479 90.1424C133.742 86.7185 140.803 80.9257 145.771 73.4956C150.739 66.0656 153.39 57.3316 153.39 48.3972V48.396C153.362 36.3994 148.57 24.9042 140.066 16.4317C131.562 7.9592 120.041 3.20129 108.029 3.20132ZM108.031 96.2943C98.55 96.2707 89.2891 93.4414 81.4179 88.164C73.5468 82.8866 67.4184 75.3978 63.8068 66.6438C60.1953 57.8898 59.2626 48.2632 61.1266 38.98C62.9906 29.6969 67.5676 21.1737 74.2795 14.4871C80.9915 7.80046 89.5373 3.25042 98.8374 1.41192C108.138 -0.426593 117.775 0.528922 126.531 4.1577C135.288 7.78648 142.771 13.9257 148.035 21.7997C153.3 29.6734 156.109 38.9285 156.11 48.396C156.078 61.1101 150.999 73.2929 141.985 82.2722C132.972 91.2513 120.761 96.294 108.031 96.2943Z" stroke="black" stroke-opacity="0.2"/>
<path fill-rule="evenodd" clip-rule="evenodd" d="M82.5356 16.1625C82.5356 17.7538 82.0674 19.3094 81.1901 20.6325C80.3129 21.9557 79.066 22.9869 77.6072 23.5959C76.1484 24.2049 74.5431 24.3642 72.9945 24.0537C71.4458 23.7433 70.0232 22.977 68.9067 21.8517C67.7902 20.7265 67.0298 19.2929 66.7218 17.7322C66.4137 16.1714 66.5718 14.5537 67.1761 13.0835C67.7803 11.6133 68.8036 10.3567 70.1165 9.47265C71.4294 8.58856 72.973 8.1167 74.552 8.1167C76.6694 8.1167 78.7 8.96438 80.1973 10.4733C81.6945 11.9821 82.5356 14.0286 82.5356 16.1625Z" fill="#2AFD88"/>
<path fill-rule="evenodd" clip-rule="evenodd" d="M109.402 94.9274C109.402 96.5187 108.934 98.0743 108.056 99.3974C107.179 100.721 105.932 101.752 104.473 102.361C103.015 102.97 101.409 103.129 99.8607 102.819C98.312 102.508 96.8894 101.742 95.7729 100.617C94.6564 99.4914 93.896 98.0578 93.588 96.4971C93.2799 94.9363 93.438 93.3186 94.0423 91.8484C94.6465 90.3782 95.6698 89.1216 96.9827 88.2375C98.2956 87.3535 99.8392 86.8816 101.418 86.8816C103.536 86.8816 105.566 87.7293 107.063 89.2382C108.561 90.747 109.402 92.7935 109.402 94.9274Z" fill="#2AFD88"/>
<path fill-rule="evenodd" clip-rule="evenodd" d="M158.461 31.9821C158.461 33.5734 157.993 35.129 157.116 36.4521C156.239 37.7752 154.992 38.8065 153.533 39.4155C152.074 40.0244 150.469 40.1838 148.92 39.8733C147.372 39.5629 145.949 38.7966 144.832 37.6714C143.716 36.5461 142.956 35.1125 142.648 33.5518C142.339 31.991 142.498 30.3733 143.102 28.9031C143.706 27.4329 144.729 26.1763 146.042 25.2922C147.355 24.4081 148.899 23.9363 150.478 23.9363C152.595 23.9363 154.626 24.784 156.123 26.2928C157.62 27.8017 158.461 29.8482 158.461 31.9821Z" fill="#2AFD88"/>
<path d="M120.739 75.2151C124.045 73.552 127.01 71.2776 129.481 68.5102V28.8711C127.013 26.1002 124.047 23.8252 120.739 22.1663V46.7194H94.2204V22.3674C90.9319 24.078 87.9895 26.3929 85.5449 29.1929V51.1581C85.5459 51.742 85.6589 52.3203 85.8776 52.8611C86.0947 53.3835 86.406 53.8609 86.7957 54.2691C87.1799 54.6562 87.6308 54.9697 88.1263 55.1944C88.6752 55.4386 89.2694 55.5621 89.8694 55.5564H120.686L120.739 75.2151Z" fill="#2AFD88"/>
<path d="M217.567 65.6675H186.83C186.31 65.7222 185.784 65.6593 185.291 65.4832C184.798 65.3071 184.351 65.0224 183.981 64.6497C183.611 64.2771 183.329 63.8259 183.154 63.3292C182.979 62.8325 182.917 62.3028 182.971 61.7787V35.804C182.931 35.2688 182.997 34.7309 183.166 34.222C183.335 33.713 183.604 33.2433 183.956 32.8405C184.746 32.1409 185.779 31.7842 186.83 31.8482H217.434C218.292 28.5564 219.404 25.3372 220.76 22.22H186.83C185.338 22.2004 183.853 22.413 182.425 22.8503C181.2 23.2273 180.041 23.7975 178.992 24.5398C178.024 25.2091 177.163 26.023 176.438 26.9536C175.747 27.835 175.166 28.7988 174.708 29.8233C174.279 30.8006 173.953 31.821 173.737 32.8673C173.537 33.8061 173.434 34.7633 173.431 35.7235V61.8055C173.406 63.3177 173.617 64.8244 174.056 66.2709C174.431 67.5074 174.992 68.6787 175.719 69.744C176.388 70.7162 177.2 71.5798 178.128 72.3052C179.005 72.9899 179.961 73.5661 180.975 74.0217C181.94 74.4542 182.948 74.7823 183.982 75.0006C184.918 75.2063 185.872 75.3142 186.83 75.3224H221.04C219.634 72.2003 218.473 68.9722 217.567 65.6675Z" fill="white"/>
<path d="M216.875 53.5986H186.737V43.9033H216.875V53.5986Z" fill="white"/>
<path d="M44.4555 65.6674H13.3992C12.8802 65.72 12.356 65.6554 11.8648 65.4784C11.3736 65.3013 10.9277 65.0163 10.5595 64.6439C10.1912 64.2715 9.90993 63.8212 9.73596 63.3255C9.562 62.8299 9.49977 62.3014 9.55376 61.7785V35.8039C9.51342 35.2687 9.57975 34.7308 9.74886 34.2218C9.91796 33.7129 10.1864 33.2432 10.5384 32.8404C11.3259 32.1441 12.3533 31.7877 13.3992 31.8481H44.216C45.0684 28.5544 46.1808 25.3348 47.5425 22.2199H13.3992C11.9077 22.2011 10.4223 22.4137 8.99491 22.8502C7.77141 23.2327 6.61356 23.8025 5.56195 24.5397C4.5994 25.2161 3.73891 26.0291 3.00719 26.9535C2.32467 27.8385 1.74849 28.8017 1.2907 29.8232C0.855502 30.7982 0.529709 31.8193 0.319368 32.8672C0.115306 33.8056 0.00827849 34.7628 1.5777e-05 35.7234V61.8053C-0.0173589 63.3172 0.193515 64.8228 0.625401 66.2708C1.00508 67.5079 1.5705 68.6792 2.30198 69.7439C2.97005 70.7125 3.77721 71.5756 4.69705 72.3051C5.57858 72.9842 6.53388 73.56 7.54454 74.0216C8.51432 74.4542 9.52678 74.7824 10.565 75.0005C11.4962 75.2062 12.446 75.314 13.3992 75.3223H47.8219C46.4524 72.1971 45.3269 68.969 44.4555 65.6674Z" fill="white"/>
</g>
<defs>
<clipPath id="clip0_826_14576">
<rect width="221" height="103" fill="white"/>
</clipPath>
</defs>
</svg>
