<svg width="34" height="25" viewBox="0 0 34 25" fill="none" xmlns="http://www.w3.org/2000/svg">
<path d="M13.7037 1.91447C13.4404 1.18248 13.1746 0.444451 13.1698 0.434788C13.043 0.15093 12.7495 -0.0278409 12.4402 0.00356469C12.2446 0.0192675 7.61465 0.417877 4.64803 2.80349C3.09707 4.23607 0 12.6117 0 19.8531C0 19.9811 0.0326136 20.1056 0.0966327 20.2167C2.23584 23.9733 8.06761 24.9565 9.39631 24.9988C9.40477 25 9.41202 25 9.41926 25C9.6536 25 9.87344 24.8877 10.0136 24.698L11.451 22.7509C9.07622 22.3897 8.64741 21.9186 8.54715 21.8449C8.01084 21.45 7.61465 20.8967 8.0954 20.1986C8.46502 19.6562 9.24049 19.4774 9.83478 19.783C10.4436 20.0669 12.073 20.9801 16.9107 20.9559C21.7146 20.9414 23.8236 19.9352 23.8538 19.9135C24.6606 19.5499 25.29 19.6997 25.6825 20.2384C26.15 20.9716 25.8166 21.4681 25.2827 21.8619C25.1825 21.9355 24.9397 22.1421 22.3886 22.746L23.8079 24.6968C23.9468 24.8877 24.1678 24.9988 24.4021 24.9988C24.4106 24.9988 24.4179 24.9988 24.4251 24.9976C25.755 24.9553 31.5868 23.9721 33.7248 20.2155C33.7888 20.1044 33.8214 19.9799 33.8214 19.8519C33.8214 12.6117 30.7243 4.23607 29.1347 2.77209C26.2068 0.419085 21.5769 0.0204754 21.3812 0.00356469C21.0719 -0.0230093 20.7784 0.152138 20.6516 0.434788C20.6468 0.444451 20.3883 1.19456 20.1382 1.9181C20.1382 1.9181 18.1681 1.62941 16.9107 1.62941C15.6533 1.62941 13.7037 1.91447 13.7037 1.91447ZM12.0791 17.3322C10.7443 17.3322 9.66326 15.7221 9.66326 13.7338C9.66326 11.7456 10.7443 10.1355 12.0791 10.1355C13.4186 9.93619 14.4659 11.7456 14.4949 13.7338C14.4949 15.7221 13.4138 17.3322 12.0791 17.3322ZM21.7423 17.3322C20.4076 17.3322 19.3265 15.7112 19.3265 13.7121C19.3265 11.713 20.4076 10.092 21.7423 10.092C23.0771 10.092 24.1582 11.713 24.1582 13.7121C24.1582 15.7112 23.0771 17.3322 21.7423 17.3322Z" fill="black
"/>
</svg>
