<svg width="32" height="25" viewBox="0 0 32 25" fill="none" xmlns="http://www.w3.org/2000/svg">
<path d="M3.73413 5.10002C3.7733 4.71346 3.62594 4.33127 3.33724 4.07117L0.396889 0.529124V0H9.52644L16.5832 15.4762L22.7873 0L31.4903 6.14708e-05V0.529124L28.9764 2.93943C28.7596 3.10457 28.6521 3.37623 28.6971 3.64501V21.3551C28.6521 21.6238 28.7596 21.8954 28.9764 22.0606L31.4315 24.4709V25H19.0825V24.4709L21.6257 22.0017C21.8757 21.7519 21.8757 21.6784 21.8757 21.2964V6.98126L14.8043 24.9411H13.8488L5.61586 6.98126V19.0183C5.54734 19.5243 5.71537 20.0339 6.07161 20.3998L9.37957 24.412V24.9411H0V24.412L3.30796 20.3998C3.66155 20.0332 3.81974 19.5202 3.73413 19.0183V5.10002Z" fill="black"/>
</svg>
