<svg width="28" height="25" viewBox="0 0 28 25" fill="none" xmlns="http://www.w3.org/2000/svg">
<path d="M25.3907 0.00227399C24.9897 0.0197156 24.6218 0.135036 24.2985 0.262441C23.9999 0.380049 22.9275 0.830782 21.2199 1.54702C19.5123 2.26325 17.2495 3.21289 14.8377 4.22728C10.0139 6.25606 4.59328 8.53819 1.81575 9.70705C1.72037 9.74679 1.333 9.86538 0.905165 10.1922C0.476339 10.5197 0 11.2305 0 12.0079C0 12.635 0.313052 13.2737 0.691069 13.6394C1.06909 14.005 1.4522 14.176 1.77239 14.3033V14.3006C2.85472 14.7318 6.08692 16.0252 6.85649 16.3332C7.12946 17.1512 8.30132 20.6532 8.5801 21.5338H8.57739C8.77444 22.1571 8.9665 22.5633 9.23322 22.9024C9.36658 23.0719 9.52577 23.2256 9.72104 23.3469C9.79596 23.3934 9.87891 23.4295 9.96223 23.4634C9.97384 23.4683 9.98581 23.4695 9.99746 23.4742L9.96494 23.4661C9.9891 23.4758 10.0108 23.4901 10.0354 23.4986C10.0755 23.5124 10.1033 23.512 10.1574 23.523C10.3475 23.5815 10.5372 23.6206 10.7129 23.6206C11.4672 23.6206 11.9297 23.2114 11.9297 23.2114L11.9596 23.1897L15.2171 20.4335L19.2063 24.1246C19.2792 24.2275 19.85 25 21.1711 25C21.9594 25 22.5827 24.6098 22.9814 24.2005C23.3802 23.7913 23.6286 23.3725 23.7403 22.8048L23.743 22.8021C23.832 22.344 27.6509 3.16764 27.6509 3.16764L27.6428 3.20016C27.7616 2.66964 27.7967 2.15658 27.6563 1.63374C27.5159 1.1109 27.137 0.600659 26.6807 0.332903C26.2244 0.0651476 25.7916 -0.0151682 25.3907 0.00227399ZM24.8433 3.04027C24.6923 3.79792 21.2714 20.9842 21.06 22.0623L15.2984 16.7316L11.404 20.0243L12.4826 15.8074C12.4826 15.8074 19.9234 8.27557 20.3716 7.8371C20.7324 7.48605 20.808 7.36299 20.808 7.24088C20.808 7.07854 20.7244 6.96175 20.5315 6.96175C20.3581 6.96175 20.1225 7.12795 19.9976 7.20565C18.4108 8.19499 11.6518 12.0467 8.32806 13.9375C8.12803 13.8573 5.12493 12.6514 3.50684 12.0052C6.385 10.7939 11.3187 8.71813 15.9136 6.78559C18.325 5.77137 20.5871 4.82088 22.2931 4.10533C23.7331 3.50131 24.4843 3.18856 24.8433 3.04027ZM21.0193 22.2601H21.022L21.0193 22.2682C21.0211 22.2593 21.018 22.2671 21.0193 22.2601Z" fill="black"/>
</svg>
