<svg viewBox="0 0 300 139" fill="none" xmlns="http://www.w3.org/2000/svg">
    <path d="M146.052 130.374C110.017 130.374 80.7021 101.131 80.7021 65.1872C80.7021 29.243 110.017 0 146.052 0C182.086 0 211.402 29.243 211.402 65.1872C211.402 101.131 182.086 130.374 146.052 130.374ZM146.052 5.00328C112.781 5.00328 85.7054 32.0066 85.7054 65.2052C85.7054 98.4039 112.781 125.389 146.052 125.389C179.323 125.389 206.398 98.3859 206.398 65.2052C206.398 32.0246 179.323 5.00328 146.052 5.00328Z" fill="url(#paint0_linear_7477_106450)"/>
    <path fill-rule="evenodd" clip-rule="evenodd" d="M112.094 21.3858C112.094 27.3825 107.235 32.2413 101.238 32.2413C95.2416 32.2413 90.3828 27.3825 90.3828 21.3858C90.3828 15.3891 95.2416 10.5303 101.238 10.5303C107.235 10.5303 112.094 15.3891 112.094 21.3858Z" fill="url(#paint1_linear_7477_106450)"/>
    <path fill-rule="evenodd" clip-rule="evenodd" d="M148.49 127.883C148.49 133.88 143.631 138.739 137.634 138.739C131.638 138.739 126.779 133.88 126.779 127.883C126.779 121.887 131.638 117.046 137.634 117.046C143.631 117.046 148.49 121.905 148.49 127.883Z" fill="url(#paint2_linear_7477_106450)"/>
    <path fill-rule="evenodd" clip-rule="evenodd" d="M215.088 43.0782C215.088 49.0749 210.23 53.9337 204.233 53.9337C198.236 53.9337 193.377 49.0929 193.377 43.0782C193.377 37.0634 198.236 32.2227 204.233 32.2227C210.23 32.2227 215.088 37.0814 215.088 43.0782Z" fill="url(#paint3_linear_7477_106450)"/>
    <path d="M163.897 101.295C168.394 99.0555 172.422 96.021 175.764 92.3362V38.8896C172.422 35.1868 168.412 32.1343 163.897 29.8945V62.9668H127.898V30.1293C123.419 32.4413 119.427 35.5661 116.122 39.3231V68.9093C116.122 69.7221 116.284 70.4988 116.573 71.2213C116.88 71.9438 117.296 72.576 117.819 73.0998C118.343 73.6236 118.975 74.0571 119.698 74.3641C120.42 74.6893 121.215 74.8518 122.046 74.8518H163.879V101.313L163.897 101.295Z" fill="url(#paint4_linear_7477_106450)"/>
    <path d="M295.34 88.4519H253.562C251.9 88.4519 250.618 88.0003 249.697 87.0791C248.775 86.176 248.324 84.8755 248.324 83.2138V48.2269C248.324 46.4748 248.775 45.1382 249.66 44.2351C250.564 43.332 251.864 42.8804 253.544 42.8804H295.087C296.261 38.419 297.779 34.084 299.603 29.9297H253.544C251.322 29.9297 249.317 30.2187 247.565 30.7786C245.813 31.3386 244.26 32.0972 242.905 33.0545C241.55 33.9937 240.394 35.0955 239.437 36.3238C238.48 37.552 237.703 38.8344 237.089 40.1891C236.493 41.5438 236.041 42.8985 235.77 44.2712C235.481 45.644 235.355 46.9445 235.355 48.1366V83.2318C235.355 85.4535 235.644 87.4584 236.204 89.2466C236.764 91.0167 237.522 92.5881 238.48 93.9248C239.419 95.2794 240.521 96.4174 241.749 97.3747C242.977 98.3139 244.26 99.0906 245.614 99.6867C246.969 100.283 248.324 100.734 249.697 101.005C251.069 101.294 252.37 101.439 253.562 101.439H300C298.122 97.2844 296.568 92.9494 295.34 88.4699V88.4519Z" fill="#1D1D1B"/>
    <path d="M294.4 72.2134H253.47V59.1543H294.4V72.2134Z" fill="#1D1D1B"/>
    <path d="M60.2562 88.4519H18.1888C16.5271 88.4519 15.2447 88.0003 14.3235 87.0791C13.4204 86.176 12.9507 84.8755 12.9507 83.2138V48.2269C12.9507 46.4748 13.4023 45.1382 14.3054 44.2351C15.2085 43.332 16.491 42.8804 18.1888 42.8804H60.0033C61.1773 38.419 62.6946 34.084 64.5189 29.9297H18.1888C15.9672 29.9297 13.9622 30.2187 12.2102 30.7786C10.4581 31.3386 8.90476 32.0972 7.55008 33.0545C6.1954 34.0118 5.05747 35.0955 4.0821 36.3238C3.12479 37.552 2.34811 38.8344 1.73399 40.1891C1.13793 41.5438 0.704434 42.8985 0.415435 44.2712C0.126437 45.644 0 46.9445 0 48.1366V83.2318C0 85.4535 0.270936 87.4584 0.848933 89.2466C1.40887 91.0167 2.16749 92.5881 3.12479 93.9248C4.06404 95.2794 5.16585 96.4174 6.39409 97.3747C7.62233 98.3139 8.90476 99.0906 10.2594 99.6867C11.6141 100.283 12.9688 100.734 14.3415 101.005C15.7143 101.294 17.0148 101.439 18.2069 101.439H64.9343C63.0558 97.2844 61.5025 92.9494 60.2742 88.4699L60.2562 88.4519Z" fill="#1D1D1B"/>
    <defs>
        <linearGradient id="paint0_linear_7477_106450" x1="113.431" y1="8.70608" x2="178.655" y2="121.668" gradientUnits="userSpaceOnUse">
            <stop stop-color="#81BB27"/>
            <stop offset="1" stop-color="#188035"/>
        </linearGradient>
        <linearGradient id="paint1_linear_7477_106450" x1="90.4009" y1="21.3858" x2="112.094" y2="21.3858" gradientUnits="userSpaceOnUse">
            <stop stop-color="#81BB27"/>
            <stop offset="1" stop-color="#188035"/>
        </linearGradient>
        <linearGradient id="paint2_linear_7477_106450" x1="126.797" y1="127.883" x2="148.49" y2="127.883" gradientUnits="userSpaceOnUse">
            <stop stop-color="#81BB27"/>
            <stop offset="1" stop-color="#188035"/>
        </linearGradient>
        <linearGradient id="paint3_linear_7477_106450" x1="193.396" y1="43.0782" x2="215.088" y2="43.0782" gradientUnits="userSpaceOnUse">
            <stop stop-color="#81BB27"/>
            <stop offset="1" stop-color="#188035"/>
        </linearGradient>
        <linearGradient id="paint4_linear_7477_106450" x1="116.122" y1="65.5858" x2="175.764" y2="65.5858" gradientUnits="userSpaceOnUse">
            <stop offset="0.35" stop-color="#76B82A"/>
            <stop offset="1" stop-color="#00773C"/>
        </linearGradient>
    </defs>
</svg>