<svg width="150" height="173" viewBox="0 0 150 173" fill="none" xmlns="http://www.w3.org/2000/svg">
<path fill-rule="evenodd" clip-rule="evenodd" d="M47.9581 68.3984L73.073 54.3579V37.3275C68.7656 34.8038 64.3838 32.3579 60.1 29.8072C60.0426 29.8511 59.9852 29.895 59.921 29.9322L33.6811 45.1079V59.743L33.7081 59.7599L47.9581 68.3984ZM60.2048 142.767L73.073 135.571V118.689L47.2048 103.669L33.6676 111.483C33.6777 111.733 33.6811 112.017 33.6811 112.348V127.422L60.2048 142.767ZM76.6338 135.385L89.2318 142.679L89.5527 142.854L116.316 127.378L116.323 111.868L102.377 103.817L76.6338 118.787V135.385ZM91.7048 145.601L91.7149 146.348V162.699C91.7149 163.179 91.4919 163.608 91.0595 163.831L76.2993 172.419C75.2183 173.047 75.0899 173.135 74.0122 172.496C69.1541 169.635 64.1912 166.882 59.3635 163.983C58.2385 163.334 58.0088 163.28 58.0358 161.973L58.0392 145.503L32.0561 130.473L31.9919 130.432L18.2656 138.415C17.1845 139.044 17.0561 139.132 15.9784 138.496C11.1203 135.632 6.15745 132.882 1.32975 129.983C0.204751 129.331 -0.0249783 129.277 0.00204872 127.969L0.0054271 110.621C0.0054271 110 0.454751 109.729 0.904076 109.469L0.961508 109.439L1.40745 109.189L15.4446 101.344V71.118C10.7554 68.368 5.9784 65.7126 1.32975 62.9221C0.204751 62.27 -0.0249783 62.216 0.00204872 60.9085L0.0054271 43.5606C0.0054271 42.9389 0.454751 42.6687 0.904076 42.4085L0.961508 42.3781L1.40745 42.1281L16.2757 33.8173C16.9243 33.4592 17.1237 33.4761 17.7588 33.8342L31.198 41.6146L32.0257 42.0741L58.0358 27.0335L58.0392 10.0031C58.0392 9.38151 58.4885 9.11124 58.9379 8.85111L58.9953 8.8207L59.4412 8.5707L74.3095 0.259893C74.9581 -0.0982154 75.1575 -0.0813235 75.7926 0.280163L89.2318 8.06057L90.0831 8.53016C91.5122 9.29368 91.7149 9.40179 91.7149 11.7295V26.9896L117.587 41.9491L117.641 41.9829L132.249 33.8173C132.894 33.4592 133.097 33.4761 133.732 33.8342L147.171 41.6146L148.022 42.0876C149.448 42.8511 149.654 42.9592 149.654 45.2869V61.6349C149.654 62.1146 149.431 62.5437 148.995 62.7666L134.465 71.2227L134.455 101.118L147.516 108.679L148.367 109.148C149.793 109.912 149.999 110.023 149.999 112.348V128.696C149.999 129.179 149.776 129.604 149.34 129.831L134.58 138.415C133.499 139.044 133.374 139.132 132.296 138.496C127.607 135.733 122.826 133.074 118.157 130.287L118.002 130.395L91.7048 145.601ZM62.377 144.736L75.0966 152.398L87.3162 144.979L87.3399 144.838L75.3399 137.365C75.1845 137.409 75.0223 137.432 74.8534 137.432C74.7757 137.432 74.6946 137.429 74.6203 137.415L62.377 144.736ZM73.8669 169.662V154.513L61.0257 146.871C60.8466 146.898 60.6642 146.892 60.4818 146.851V161.797L73.8669 169.662ZM88.8196 147.027L76.3129 154.52V169.679L89.2689 162.027V146.966C89.1203 147.01 88.9716 147.03 88.8196 147.027ZM76.6338 37.6011V54.3815L101.668 68.8883L115.891 60.6687L115.972 60.6214L115.978 45.0099L90.2419 30.1248C90.1237 30.0572 90.0122 29.9727 89.9176 29.8748L76.6338 37.6011ZM62.377 10.1146L75.0966 17.7768L87.4446 10.2802L75.0291 2.55043L62.377 10.1146ZM73.8669 35.0437V19.8917L60.4818 11.9288V27.1754L73.8669 35.0437ZM89.2689 12.1383L76.3129 19.8984V35.0572L89.2689 27.4052V12.1383ZM131.34 101.577C131.33 101.493 131.326 101.412 131.326 101.327L131.343 71.0775C126.945 68.4964 122.468 65.9998 118.093 63.395C117.975 63.5268 117.83 63.645 117.668 63.7396L103.495 71.9288V100.371L118.255 108.892L131.34 101.577ZM119.495 112.983C119.266 113.064 119.012 113.098 118.766 113.077V127.794L132.151 135.662V120.51L119.495 112.983ZM120.661 110.733L133.377 118.395L145.728 110.898L133.309 103.169L120.661 110.733ZM147.553 112.757L134.593 120.517V135.675L147.553 128.023V112.757ZM31.3162 108.743L45.6338 100.476V71.1315L32.421 63.118L18.573 71.1754V101.368L31.198 108.679L31.3162 108.743ZM17.0865 103.226L17.0088 103.229L16.9007 103.226L4.34327 110.733L17.0629 118.395L29.4108 110.898L17.0865 103.226ZM15.8331 135.662V120.51L2.44799 112.547V127.794L15.8331 135.662ZM31.2352 112.757L18.2791 120.517V135.675L31.2352 128.023V112.757ZM31.0291 61.0842C31.0527 60.8579 31.1237 60.6383 31.2352 60.4288V45.6957L18.2791 53.4558V68.6146L31.0291 61.0842ZM4.34327 43.6721L17.0629 51.3342L29.4108 43.8376L16.9953 36.1079L4.34327 43.6721ZM15.8331 68.6011V53.4491L2.44799 45.4862V60.7329L15.8331 68.6011ZM120.316 43.6721L133.032 51.3342L145.384 43.8376L132.965 36.1079L120.316 43.6721ZM131.806 68.6011V53.4491L118.421 45.4862V60.7329L131.806 68.6011ZM147.208 45.6957L134.249 53.4558V68.6146L147.208 60.9626V45.6957ZM73.4176 115.517V87.4795L48.671 72.7565V100.973L73.4176 115.517ZM100.451 73.118L76.4581 87.4964V115.544L100.451 101.371V73.118ZM74.8399 56.6653L51.4176 70.6687L74.948 84.8477L97.8129 70.966L74.8399 56.6653Z" fill="#81CF1F"/>
</svg>
