<svg width="130" height="130" viewBox="0 0 130 130" fill="none" xmlns="http://www.w3.org/2000/svg">
<path d="M111.843 14.4854L71.2432 44.6391L78.751 26.8488L111.843 14.4854Z" fill="#E2761B" stroke="#E2761B" stroke-linecap="round" stroke-linejoin="round"/>
<path d="M18.1169 14.4854L58.39 44.9248L51.2493 26.8488L18.1169 14.4854ZM97.2349 84.3818L86.422 100.948L109.558 107.313L116.209 84.749L97.2349 84.3818ZM13.8325 84.749L20.4427 107.313L43.5783 100.948L32.7654 84.3818L13.8325 84.749Z" fill="#E4761B" stroke="#E4761B" stroke-linecap="round" stroke-linejoin="round"/>
<path d="M42.2726 56.3905L35.8257 66.1426L58.7981 67.1627L57.982 42.4765L42.2726 56.3905ZM87.6869 56.3905L71.7736 42.1909L71.2431 67.1627L94.1747 66.1426L87.6869 56.3905ZM43.5784 100.948L57.3699 94.2154L45.4553 84.9122L43.5784 100.948ZM72.5896 94.2154L86.422 100.948L84.5043 84.9122L72.5896 94.2154Z" fill="#E4761B" stroke="#E4761B" stroke-linecap="round" stroke-linejoin="round"/>
<path d="M86.4218 100.948L72.5894 94.2153L73.6911 103.233L73.5687 107.028L86.4218 100.948ZM43.5781 100.948L56.4312 107.028L56.3496 103.233L57.3697 94.2153L43.5781 100.948Z" fill="#D7C1B3" stroke="#D7C1B3" stroke-linecap="round" stroke-linejoin="round"/>
<path d="M56.6355 78.9548L45.1289 75.5681L53.2488 71.855L56.6355 78.9548ZM73.3241 78.9548L76.7108 71.855L84.8715 75.5681L73.3241 78.9548Z" fill="#233447" stroke="#233447" stroke-linecap="round" stroke-linejoin="round"/>
<path d="M43.5781 100.948L45.5366 84.3817L32.7651 84.749L43.5781 100.948ZM84.4632 84.3817L86.4218 100.948L97.2347 84.749L84.4632 84.3817ZM94.1744 66.1426L71.2429 67.1627L73.3646 78.9549L76.7513 71.8551L84.912 75.5682L94.1744 66.1426ZM45.1286 75.5682L53.2893 71.8551L56.6352 78.9549L58.7978 67.1627L35.8254 66.1426L45.1286 75.5682Z" fill="#CD6116" stroke="#CD6116" stroke-linecap="round" stroke-linejoin="round"/>
<path d="M35.8257 66.1426L45.4553 84.9122L45.1289 75.5682L35.8257 66.1426ZM84.9123 75.5682L84.5043 84.9122L94.1747 66.1426L84.9123 75.5682ZM58.7981 67.1627L56.6355 78.9549L59.3285 92.8689L59.9406 74.5481L58.7981 67.1627ZM71.2431 67.1627L70.1414 74.5073L70.6311 92.8689L73.3649 78.9549L71.2431 67.1627Z" fill="#E4751F" stroke="#E4751F" stroke-linecap="round" stroke-linejoin="round"/>
<path d="M73.3649 78.9546L70.6311 92.8686L72.5897 94.2151L84.5043 84.9119L84.9123 75.5679L73.3649 78.9546ZM45.1289 75.5679L45.4553 84.9119L57.37 94.2151L59.3285 92.8686L56.6355 78.9546L45.1289 75.5679Z" fill="#F6851B" stroke="#F6851B" stroke-linecap="round" stroke-linejoin="round"/>
<path d="M73.5687 107.027L73.6911 103.233L72.671 102.335H57.2881L56.3496 103.233L56.4312 107.027L43.5781 100.948L48.0665 104.62L57.1657 110.945H72.7934L81.9334 104.62L86.4218 100.948L73.5687 107.027Z" fill="#C0AD9E" stroke="#C0AD9E" stroke-linecap="round" stroke-linejoin="round"/>
<path d="M72.5894 94.2152L70.6308 92.8687H59.3283L57.3697 94.2152L56.3496 103.233L57.2881 102.335H72.671L73.6911 103.233L72.5894 94.2152Z" fill="#161616" stroke="#161616" stroke-linecap="round" stroke-linejoin="round"/>
<path d="M113.556 46.5977L117.025 29.9499L111.843 14.4854L72.5895 43.6191L87.6868 56.3906L109.027 62.6335L113.76 57.125L111.72 55.6561L114.984 52.6774L112.455 50.7189L115.719 48.2299L113.556 46.5977ZM12.9756 29.9499L16.4439 46.5977L14.2405 48.2299L17.5048 50.7189L15.0158 52.6774L18.28 55.6561L16.2399 57.125L20.9323 62.6335L42.2725 56.3906L57.3698 43.6191L18.1168 14.4854L12.9756 29.9499Z" fill="#763D16" stroke="#763D16" stroke-linecap="round" stroke-linejoin="round"/>
<path d="M109.027 62.6333L87.6869 56.3904L94.1746 66.1424L84.5042 84.912L97.2349 84.7488H116.209L109.027 62.6333ZM42.2726 56.3904L20.9323 62.6333L13.8325 84.7488H32.7654L45.4552 84.912L35.8256 66.1424L42.2726 56.3904ZM71.2431 67.1625L72.5896 43.6189L78.7917 26.8486H51.2493L57.3699 43.6189L58.798 67.1625L59.2876 74.5887L59.3284 92.8687H70.631L70.7126 74.5887L71.2431 67.1625Z" fill="#F6851B" stroke="#F6851B" stroke-linecap="round" stroke-linejoin="round"/>
</svg>
